HIERARCHY
ROOT root
{
	OFFSET 0.000000 0.000000 0.000000
	CHANNELS 6 Xposition Yposition Zposition Zrotation Yrotation Xrotation
	JOINT lhip
	{
		OFFSET 0.058581 -0.082280 -0.017664
		CHANNELS 3 Zrotation Yrotation Xrotation
		JOINT lknee
		{
			OFFSET 0.043451 -0.386469 0.008037
			CHANNELS 3 Zrotation Yrotation Xrotation
			JOINT lankle
			{
				OFFSET -0.014790 -0.426874 -0.037428
				CHANNELS 3 Zrotation Yrotation Xrotation
				JOINT ltoe
				{
					OFFSET 0.041054 -0.060286 0.122042
					CHANNELS 3 Zrotation Yrotation Xrotation
					End Site
					{
						OFFSET 0.000000 0.000000 0.000000
					}
				}
			}
		}
	}
	JOINT rhip
	{
		OFFSET -0.060310 -0.090513 -0.013543
		CHANNELS 3 Zrotation Yrotation Xrotation
		JOINT rknee
		{
			OFFSET -0.043257 -0.383688 -0.004843
			CHANNELS 3 Zrotation Yrotation Xrotation
			JOINT rankle
			{
				OFFSET 0.019056 -0.420046 -0.034562
				CHANNELS 3 Zrotation Yrotation Xrotation
				JOINT rtoe
				{
					OFFSET -0.034840 -0.062106 0.130323
					CHANNELS 3 Zrotation Yrotation Xrotation
					End Site
					{
						OFFSET 0.000000 0.000000 0.000000
					}
				}
			}
		}
	}
	JOINT lowerback
	{
		OFFSET 0.004439 0.124404 -0.038385
		CHANNELS 3 Zrotation Yrotation Xrotation
		JOINT upperback
		{
			OFFSET 0.004488 0.137956 0.026820
			CHANNELS 3 Zrotation Yrotation Xrotation
			JOINT chest
			{
				OFFSET -0.002265 0.056032 0.002855
				CHANNELS 3 Zrotation Yrotation Xrotation
				JOINT lowerneck
				{
					OFFSET -0.013390 0.211636 -0.033468
					CHANNELS 3 Zrotation Yrotation Xrotation
					JOINT upperneck
					{
						OFFSET 0.010113 0.088937 0.050410
						CHANNELS 3 Zrotation Yrotation Xrotation
						End Site
						{
							OFFSET 0.000000 0.000000 0.000000
						}
					}
				}
				JOINT lclavicle
				{
					OFFSET 0.071702 0.114000 -0.018898
					CHANNELS 3 Zrotation Yrotation Xrotation
					JOINT lshoulder
					{
						OFFSET 0.122921 0.045205 -0.019046
						CHANNELS 3 Zrotation Yrotation Xrotation
						JOINT lelbow
						{
							OFFSET 0.255332 -0.015649 -0.022946
							CHANNELS 3 Zrotation Yrotation Xrotation
							JOINT lwrist
							{
								OFFSET 0.265709 0.012698 -0.007375
								CHANNELS 3 Zrotation Yrotation Xrotation
								End Site
								{
									OFFSET 0.000000 0.000000 0.000000
								}
							}
						}
					}
				}
				JOINT rclavicle
				{
					OFFSET -0.082954 0.112472 -0.023707
					CHANNELS 3 Zrotation Yrotation Xrotation
					JOINT rshoulder
					{
						OFFSET -0.113228 0.046853 -0.008472
						CHANNELS 3 Zrotation Yrotation Xrotation
						JOINT relbow
						{
							OFFSET -0.260127 -0.014369 -0.031269
							CHANNELS 3 Zrotation Yrotation Xrotation
							JOINT rwrist
							{
								OFFSET -0.269108 0.006794 -0.006027
								CHANNELS 3 Zrotation Yrotation Xrotation
								End Site
								{
									OFFSET 0.000000 0.000000 0.000000
								}
							}
						}
					}
				}
			}
		}
	}
}
MOTION
Frames: 13
Frame Time: 0.033333
-2.043472 0.826244 1.004480 71.841003 -0.470425 87.888863 -0.817619 -2.914093 -4.914229 -5.286108 -8.950496 11.874916 2.543474 7.316297 -10.404235 0.000000 -0.000000 0.000000 -3.462588 -2.523842 -2.555801 -1.152774 0.013399 18.190241 0.943823 -9.613201 -15.975073 0.000000 -0.000000 0.000000 -2.058023 4.167698 4.035362 3.580855 -2.316415 6.716376 2.439407 0.743283 -4.950930 0.894567 9.292589 -6.944211 -0.567106 5.912177 -5.607282 -27.769148 -11.720565 -0.169269 -52.142310 -8.266249 15.650703 -0.083373 -22.345584 7.554020 -6.699179 -6.252529 7.371184 30.347253 14.876722 6.387265 48.197840 8.719465 15.454270 -8.131769 21.673149 1.026057 5.752831 4.959499 10.269596 
-2.045241 0.825622 1.004857 75.296462 -0.672123 87.420152 -0.997775 -3.754192 -4.730231 -5.332587 -10.386184 11.729465 2.282361 6.770560 -9.716513 0.000000 -0.000000 0.000000 -2.333355 -1.689437 -0.947371 -1.919897 0.962357 16.398693 0.457078 -9.776457 -15.656098 0.000000 -0.000000 0.000000 -2.274094 4.071396 3.929848 3.449266 -2.912527 6.985915 2.111381 0.716942 -5.004288 0.807454 7.813895 -6.537136 0.269674 5.331193 -4.558522 -27.971092 -11.423144 -0.081800 -51.703080 -8.095243 15.674584 -0.094028 -21.868333 6.848425 -6.831315 -5.940711 6.917598 30.140403 14.089643 6.021393 48.468750 7.531036 15.618004 -8.253742 22.030231 1.189989 6.272735 4.997567 9.841218 
-2.048374 0.824119 1.004465 78.645068 -0.986467 87.260501 -1.193306 -4.421998 -5.116808 -5.450239 -11.887425 11.801886 1.779481 5.896238 -9.331477 0.000000 -0.000000 0.000000 -1.827811 -2.224689 0.138666 -2.861374 -0.384583 14.770953 -0.349306 -11.202364 -14.207681 0.000000 -0.000000 0.000000 -2.596559 4.023324 4.022709 3.214559 -3.320730 6.724089 1.875327 0.386544 -4.848018 0.668958 6.684928 -6.082467 0.852970 4.571218 -4.081606 -28.031494 -10.911729 -0.104734 -51.309695 -8.122889 15.618698 0.112618 -21.503146 6.247225 -7.265553 -5.926508 6.715065 30.002944 13.274958 5.348093 48.729869 6.530536 15.459097 -8.372499 22.426375 1.134047 6.594033 5.748936 9.570034 
-2.052014 0.822181 1.004825 81.173401 -1.064153 87.261196 -1.066906 -4.666163 -5.382681 -5.463394 -13.187105 11.319619 1.368100 5.089673 -8.680198 0.000000 -0.000000 0.000000 -1.563885 -3.387252 1.215068 -3.205664 -1.432915 12.883323 -0.645793 -11.535358 -13.404902 0.000000 -0.000000 0.000000 -2.389802 4.351357 3.557051 2.940666 -3.653720 6.966517 1.424106 0.287977 -4.871928 0.557287 6.040567 -5.320161 1.249363 3.944206 -3.931978 -28.555630 -10.473159 -0.139326 -50.546736 -7.768601 15.762577 0.189113 -21.038943 5.965303 -6.985350 -5.798721 7.111527 30.075601 12.683209 5.262055 48.680846 5.658191 15.155959 -8.604035 23.067613 0.306078 6.271266 6.090984 8.967707 
-2.057985 0.819539 1.004946 83.201933 -0.887761 87.424495 -0.540810 -5.140798 -6.384356 -5.583363 -13.698370 11.669281 0.979827 4.320437 -8.188906 0.000000 -0.000000 0.000000 -1.371108 -4.510784 2.042466 -3.003946 -2.394742 10.677199 -0.576700 -12.018539 -12.550049 0.000000 -0.000000 0.000000 -2.033591 4.857780 3.900385 2.695651 -3.694001 6.297434 1.268348 0.353875 -4.712970 0.403373 5.263206 -5.459351 1.426691 3.302641 -3.425216 -28.709265 -9.921266 -0.212391 -50.532280 -7.547177 15.923152 0.590665 -20.208955 6.340665 -6.602633 -6.403059 6.994904 29.850136 11.931866 4.922330 48.695627 5.110686 14.796827 -8.708889 23.418389 0.050342 5.753904 6.549645 8.257779 
-2.065256 0.816693 1.004883 84.390586 -0.780103 87.667446 0.043250 -5.419209 -7.331097 -5.699124 -13.775872 11.708954 0.607763 3.653674 -7.923194 0.000000 -0.000000 0.000000 -1.356543 -5.615893 2.132774 -2.587755 -3.024505 9.326281 -0.432615 -11.919829 -11.693289 0.000000 -0.000000 0.000000 -1.835350 5.718940 3.502035 2.529865 -3.395494 6.854944 1.182653 0.442024 -4.663758 0.366596 5.400110 -5.485590 1.525842 2.630346 -3.075090 -28.637863 -9.661313 -0.168356 -50.815078 -7.665160 15.685697 1.084223 -19.722386 5.950590 -6.120499 -6.763896 6.887188 29.625604 11.956064 4.962360 48.468463 5.179858 14.333221 -8.993127 23.228379 -0.569152 5.246286 6.679026 7.890289 
-2.072258 0.813036 1.005202 85.296992 -0.636660 87.766225 0.537756 -5.615274 -8.177769 -5.542076 -13.743675 11.938617 0.341818 3.499355 -8.242478 0.000000 -0.000000 0.000000 -1.005073 -6.331540 2.175938 -2.401058 -3.490858 8.288724 -0.256231 -12.002397 -11.346760 0.000000 -0.000000 0.000000 -1.646006 6.261560 3.923187 2.403948 -2.964842 6.282526 1.182288 0.669216 -4.592943 0.646198 5.063888 -5.603734 1.428854 2.134282 -2.317617 -28.554666 -8.352184 -0.633081 -51.198048 -7.165798 15.622788 1.181810 -20.044756 5.999191 -5.096826 -6.852525 6.548793 29.538336 11.507878 4.752513 48.177964 5.365717 14.305803 -8.870798 22.594174 -0.347016 4.578138 6.865236 8.262316 
-2.078563 0.808886 1.005229 85.734033 -0.672279 87.623081 0.927996 -5.579572 -8.541686 -5.546258 -13.841475 12.000415 -0.199783 3.488097 -8.541287 0.000000 -0.000000 0.000000 -0.507247 -6.512560 2.421741 -2.578070 -3.796742 7.295095 -0.343116 -12.184636 -11.166539 0.000000 -0.000000 0.000000 -1.801745 6.656611 4.119976 2.351310 -2.410558 6.155407 1.294763 0.959708 -4.362212 0.962115 4.787892 -5.602828 1.310571 1.935735 -1.850014 -28.467017 -7.640571 -0.624633 -51.594479 -6.618240 15.484213 1.393491 -20.274619 5.758848 -3.561089 -6.617694 5.960489 29.534643 11.633926 4.829767 47.764412 5.932892 14.366245 -8.544609 21.978034 0.028010 3.337313 6.094702 8.640902 
-2.084712 0.804550 1.004909 86.210205 -0.720399 87.229287 1.208178 -5.700824 -8.675121 -5.406142 -13.821365 12.164184 -0.591407 3.394176 -8.508999 0.000000 -0.000000 0.000000 -0.015601 -6.403594 3.071621 -2.701484 -3.879820 6.197645 -0.573324 -12.386462 -11.096263 0.000000 -0.000000 0.000000 -1.809713 6.789448 4.511498 2.273300 -2.150029 6.311924 1.363826 1.096323 -4.087254 1.040773 4.847615 -5.989622 1.243441 1.812486 -1.405772 -28.527835 -7.078317 -0.341140 -51.592019 -6.098835 14.907190 1.432110 -20.482027 5.472055 -2.950773 -6.691677 5.217427 29.601890 12.108222 4.907106 47.328029 6.759776 14.250319 -8.490251 21.563764 0.273465 2.705154 5.869517 9.190611 
-2.090745 0.800185 1.004313 86.943045 -0.691542 87.043484 1.695689 -6.098836 -9.314590 -5.528157 -13.661654 12.696239 -1.010980 3.295149 -8.742793 0.000000 -0.000000 0.000000 0.479976 -6.536734 3.693005 -2.677912 -4.035982 4.762976 -0.475704 -12.581193 -11.188723 0.000000 -0.000000 0.000000 -1.618548 6.763287 5.136630 2.070180 -2.256615 5.524356 1.387248 1.212394 -3.740097 1.224687 4.918134 -6.113004 1.195600 1.616489 -0.564937 -28.781370 -6.345714 -0.065823 -51.271827 -5.467908 14.454078 1.202257 -20.007925 5.650876 -3.633455 -7.815544 4.078848 29.862578 12.180732 4.771475 47.035654 7.392473 14.376033 -8.354321 21.530060 0.909035 2.595448 6.044524 9.235990 
-2.096106 0.795766 1.004051 87.511961 -0.646353 87.041886 2.296692 -6.188110 -9.872473 -5.730430 -13.553381 12.865498 -1.385995 2.988475 -8.976934 0.000000 -0.000000 0.000000 0.750927 -6.932333 4.091666 -2.302035 -3.943144 3.433983 -0.444120 -12.532336 -11.111835 0.000000 -0.000000 0.000000 -1.409074 7.011220 4.987078 2.054593 -2.390699 5.607122 1.375429 1.081208 -3.675996 1.279785 5.031773 -6.111211 0.977699 1.462835 0.124284 -29.041825 -6.026948 0.241051 -51.076583 -4.730094 14.510130 0.738849 -19.327808 6.497658 -3.676300 -7.204308 4.351944 30.149274 12.257263 4.688760 46.673969 7.855787 14.362362 -8.149427 22.302049 1.079046 2.219865 6.207865 9.157313 
-2.101428 0.790723 1.004082 87.760517 -0.762157 87.175490 2.883186 -5.872890 -10.289014 -6.055335 -13.722210 12.467158 -1.563839 2.462230 -8.036515 0.000000 -0.000000 0.000000 1.086658 -7.220479 3.842367 -2.234721 -3.670599 2.937125 -0.544689 -12.488709 -11.123607 0.000000 -0.000000 0.000000 -1.529242 7.136024 4.809594 2.075372 -2.567065 5.726768 1.300062 1.280358 -3.972454 1.436747 4.944925 -5.858287 0.902344 1.450889 0.803791 -28.937166 -5.677351 0.185883 -51.270523 -3.816678 15.374086 0.336461 -18.262390 7.780089 -3.413790 -6.438730 5.408180 30.424712 12.072448 4.597558 46.765045 8.283921 14.539450 -8.067076 23.244378 0.847746 2.007412 6.440799 8.810743 
-2.105803 0.785834 1.004214 87.849647 -0.946343 86.794755 2.956475 -5.655508 -9.994246 -5.878312 -13.981722 12.226462 -1.606357 2.176930 -7.385869 0.000000 -0.000000 0.000000 1.402250 -7.048430 4.342909 -2.341307 -3.555191 2.223693 -0.812265 -12.600639 -10.895246 0.000000 -0.000000 0.000000 -1.631762 7.210732 4.876058 2.121774 -2.370342 5.960870 1.375998 1.243447 -3.911563 1.271518 4.925135 -5.641369 0.836946 1.592517 1.101072 -29.141699 -5.720040 0.512526 -51.460709 -3.297953 15.780788 0.382281 -17.399940 8.920427 -4.281028 -5.856951 6.270483 30.481946 12.224720 4.540525 47.019185 8.545988 14.604861 -8.209657 24.311521 0.470881 2.154568 6.503835 8.004446 
